# xmcd
#
# Track frame offsets:
# 150
# 25135
# 41350
#
# Disc length: 802 seconds
#
#
# Revision: 2
# Processed by: cddbd v1.5.2PL0 Copyright (c) Steve Scherf et al.
# Submitted via: FreeRIP 2.951 
#
DISCID=18032003
DTITLE=Various Artist - 2000.1.11 Secret Live
DYEAR=2000
DGENRE=Soundtrack
TTITLE0=Sweet Emotion
TTITLE1=China Ros
TTITLE2=BUB
EXTD=YEAR: 2000 ID3G: 17
EXTT0=
EXTT1=
EXTT2=
PLAYORDER=
